<svg version="1.1" id="Layer_1" xmlns="http://www.w3.org/2000/svg" xmlns:xlink="http://www.w3.org/1999/xlink" x="0px" y="0px"
	 width="100%" viewBox="0 0 825 411" enable-background="new 0 0 825 411" xml:space="preserve">
<path fill="#FEFFFF" opacity="1.000000" stroke="none" 
	d="
M557.000000,412.000000 
	C371.333344,412.000000 186.166672,412.000000 1.000000,412.000000 
	C1.000000,275.000000 1.000000,138.000000 1.000000,1.000000 
	C276.000000,1.000000 551.000000,1.000000 826.000000,1.000000 
	C826.000000,138.000000 826.000000,275.000000 826.000000,412.000000 
	C736.500000,412.000000 647.000000,412.000000 557.000000,412.000000 
M387.400970,266.158051 
	C386.756287,267.144470 386.111603,268.130920 385.307526,270.025574 
	C385.298279,275.912140 385.191742,281.801422 385.354645,287.683228 
	C385.391083,288.999420 386.372009,290.289429 387.682526,291.875427 
	C390.498138,291.883026 393.335846,292.117889 396.124268,291.846344 
	C400.593140,291.411194 404.105164,289.006470 403.345764,284.279297 
	C402.467529,278.812622 400.394104,273.516022 398.540771,268.250732 
	C398.251709,267.429504 396.373871,267.167542 394.488403,266.365509 
	C392.364380,266.407135 390.240326,266.448761 387.400970,266.158051 
M442.306244,271.272522 
	C442.306244,271.272522 442.201385,271.559784 441.826385,272.218536 
	C441.827820,272.717438 442.007874,273.309540 441.803650,273.701202 
	C439.052643,278.976593 439.468353,283.329010 443.204224,287.672729 
	C446.633942,291.660431 452.301636,293.157928 457.242950,291.381897 
	C463.632568,289.085327 464.759033,286.135559 463.163483,275.851929 
	C459.838898,275.851929 456.526459,275.851929 453.213989,275.851929 
	C453.109741,276.423645 453.005524,276.995331 452.901306,277.567047 
	C455.405914,278.106750 457.910522,278.646454 460.380859,279.178772 
	C461.072296,286.725006 456.188660,291.081207 449.909546,288.688477 
	C443.972260,286.426025 441.826752,280.717773 444.762146,272.962097 
	C449.206390,266.070862 455.924042,269.538849 462.007874,270.118561 
	C456.340546,264.120758 449.501678,264.253235 443.212555,269.871704 
	C442.993256,270.279205 442.773987,270.686707 442.306244,271.272522 
M510.242493,266.659027 
	C506.821838,266.505585 503.401154,266.352142 499.446320,266.174713 
	C499.446320,274.859619 499.446320,282.949615 499.227448,291.688507 
	C502.209473,291.657318 505.191528,291.626160 508.895935,291.562225 
	C515.923889,290.188416 519.971069,286.051056 520.380615,279.821472 
	C520.783325,273.696594 517.407776,269.053436 510.242493,266.659027 
M290.443817,275.466461 
	C288.833893,281.463623 290.964752,286.178955 295.661102,289.804596 
	C298.760834,292.197601 307.169006,291.656067 311.665894,288.896851 
	C312.599792,287.742584 313.725098,286.694305 314.433197,285.415039 
	C316.971649,280.829010 317.037994,276.007629 314.157196,271.710510 
	C310.897064,266.847504 306.159180,264.509644 300.109619,265.922607 
	C295.213470,267.066223 291.743073,269.686066 290.443817,275.466461 
M316.885040,223.178177 
	C316.885040,223.178177 316.676514,223.345444 316.850342,224.001999 
	C319.032227,224.715515 322.106384,226.660370 323.198059,225.869339 
	C325.086487,224.500961 326.747406,221.444168 326.767334,219.080994 
	C327.004456,190.976746 326.922760,162.869781 326.910400,134.763535 
	C326.909973,133.772949 327.118439,132.507202 326.609741,131.848068 
	C325.485901,130.391891 324.139099,128.593765 322.553558,128.170685 
	C321.287201,127.832787 319.533630,129.320831 317.201569,130.170990 
	C316.801941,132.041336 316.062714,133.910278 316.054871,135.782257 
	C315.970306,155.919479 316.006256,176.057175 315.988800,196.194733 
	C315.987610,197.543091 315.821289,198.891327 315.667328,201.210373 
	C314.128906,198.766052 313.164001,197.254211 312.219818,195.729584 
	C298.845398,174.133438 285.499939,152.519302 272.079529,130.951782 
	C269.385315,126.622009 264.857330,126.750374 261.825592,131.943481 
	C261.797485,158.973663 261.756378,186.003860 261.758087,213.034042 
	C261.758270,216.335754 261.988190,219.637482 262.167908,223.633072 
	C264.458374,224.423828 267.090179,226.273621 268.934174,225.679230 
	C270.484283,225.179581 271.996765,221.843842 272.019775,219.747116 
	C272.246552,199.084564 272.153931,178.418549 272.170166,157.753540 
	C272.171234,156.382095 272.321320,155.010788 272.465149,152.569000 
	C286.549805,175.102097 300.025726,196.661346 313.680908,218.883499 
	C314.669769,220.355927 315.658630,221.828354 316.885040,223.178177 
M639.710754,222.836456 
	C640.937927,226.091934 643.728394,227.447586 646.411804,225.944061 
	C648.247437,224.915527 649.958435,221.919968 650.018799,219.756104 
	C650.362061,207.472336 650.211548,195.174164 650.185120,182.880981 
	C650.174927,178.143066 652.553711,174.898453 656.731323,173.251755 
	C660.867615,171.621323 663.085205,174.308838 664.952271,177.642441 
	C666.421814,180.266068 668.817322,182.350449 671.893921,180.633667 
	C674.854187,178.981781 675.914429,176.149109 674.577759,172.577271 
	C671.205627,163.565933 661.950256,159.597305 653.082275,163.256226 
	C651.477722,163.918259 649.022278,163.991318 647.549805,163.215744 
	C643.597412,161.133972 641.980225,161.492264 639.652405,166.859131 
	C639.716370,185.278152 639.780396,203.697159 639.710754,222.836456 
M428.164398,173.927109 
	C428.194244,177.746475 428.212097,181.565979 428.256195,185.385178 
	C428.397766,197.651566 428.549042,209.917847 428.630585,222.929733 
	C430.701630,224.047623 432.958862,226.266815 434.788574,225.957443 
	C436.445038,225.677368 438.692963,222.718796 438.838837,220.801193 
	C439.343018,214.172501 439.046600,207.482651 439.048889,200.816086 
	C439.052032,191.702606 439.049652,182.589127 439.049652,173.051727 
	C442.385651,173.051727 445.180878,173.077682 447.975433,173.045456 
	C451.847382,173.000793 454.658325,171.346802 454.497345,167.198029 
	C454.335846,163.035629 451.368317,161.621277 447.533447,161.935669 
	C444.865814,162.154388 442.214539,162.573242 439.048401,162.965591 
	C439.048401,156.674438 438.877625,151.026291 439.105499,145.394272 
	C439.270844,141.308914 437.955688,138.228226 433.742767,137.996323 
	C429.144623,137.743240 428.088074,141.188736 428.118286,145.123306 
	C428.160156,150.571701 428.128815,156.020676 428.128815,161.351944 
	C424.679993,161.935211 421.727936,163.089569 418.961548,162.746490 
	C414.959991,162.250244 413.123749,163.721542 412.910980,167.349503 
	C412.673737,171.395157 415.319275,172.913498 418.936310,173.030212 
	C421.932098,173.126892 424.934204,173.028091 428.164398,173.927109 
M698.050964,131.264557 
	C695.094421,127.213898 690.650208,127.123909 687.875671,131.960663 
	C687.850647,161.167221 687.810181,190.373779 687.850037,219.580261 
	C687.851868,220.918243 688.576233,222.255234 688.765869,224.237228 
	C690.814758,224.847260 693.293945,226.448868 694.795288,225.797287 
	C696.398071,225.101669 697.871948,222.334564 698.010620,220.373352 
	C698.425476,214.507919 698.159790,208.594391 698.159790,201.477158 
	C706.178162,209.317398 713.275879,216.252426 720.367554,223.193619 
	C724.050293,226.798248 727.649658,227.564911 729.769348,224.838074 
	C732.565674,221.240738 731.310303,218.101746 728.125244,215.298355 
	C725.631042,213.103043 723.288696,210.727188 720.966614,208.345901 
	C716.249390,203.508453 711.591553,198.613144 707.772339,194.639648 
	C714.605652,187.290222 721.337769,179.932709 728.214478,172.712967 
	C730.852661,169.943146 732.709656,167.150146 730.023376,163.570709 
	C728.598816,161.672348 722.756714,162.595779 720.365723,164.919678 
	C714.162720,170.948563 708.027466,177.048004 701.764465,183.013611 
	C700.774780,183.956299 699.261536,184.349304 698.127075,184.068253 
	C698.076233,166.714844 698.025330,149.361420 698.050964,131.264557 
M119.396645,128.883087 
	C109.466652,129.937744 99.534821,130.975357 89.607101,132.050949 
	C73.732712,133.770813 57.852425,135.441864 41.992840,137.289795 
	C36.313587,137.951538 35.203621,139.429810 36.186283,144.193924 
	C43.982101,181.989227 51.896942,219.760376 59.531212,257.588196 
	C60.549614,262.634399 62.925312,264.107483 67.719566,263.940125 
	C75.674065,263.662537 83.645294,263.864624 92.200714,263.864624 
	C90.168953,272.401550 88.135315,280.258240 86.491158,288.195618 
	C85.839584,291.341125 82.782784,295.222870 86.821404,297.746002 
	C90.550835,300.076019 93.289787,296.536957 95.963348,294.460968 
	C114.908585,279.750031 133.734863,264.884003 152.817017,250.353699 
	C155.330978,248.439407 159.059891,247.332031 162.262512,247.248688 
	C175.419373,246.906311 188.591110,247.023010 201.755569,247.153168 
	C205.678909,247.191956 207.496338,245.631134 208.002502,241.753860 
	C213.126923,202.500015 218.338028,163.257507 223.511978,124.010109 
	C224.095596,119.582947 222.482056,117.687279 218.018753,118.039810 
	C213.049652,118.432297 208.115829,119.250999 203.156815,119.794525 
	C175.540176,122.821411 147.920532,125.821098 119.396645,128.883087 
M541.106445,200.701965 
	C545.097961,190.490860 549.079529,180.275803 553.086548,170.070786 
	C554.470520,166.546082 553.691345,163.708099 550.127258,162.275101 
	C546.630554,160.869217 544.529846,162.967667 543.116882,165.930893 
	C542.620728,166.971497 542.255554,168.075989 541.853333,169.159775 
	C537.632324,180.534225 533.424377,191.913574 529.185852,203.281555 
	C528.729553,204.505356 528.103821,205.665955 527.201904,207.627335 
	C521.972412,193.479706 517.235718,180.199036 512.048767,167.096588 
	C511.194733,164.939194 508.492096,162.423569 506.407837,162.191360 
	C504.768311,162.008728 501.940094,164.740677 501.075806,166.785049 
	C498.306152,173.336334 496.323700,180.214966 493.809998,186.881485 
	C491.289795,193.565201 488.496460,200.145920 485.459747,207.671448 
	C480.172455,193.458771 475.320099,180.209549 470.284882,167.030197 
	C469.080688,163.878372 467.142395,160.691772 462.987610,162.200912 
	C458.790924,163.725250 458.598450,167.108124 460.081268,170.870239 
	C466.778687,187.862305 473.347229,204.906509 480.248322,221.815140 
	C481.030701,223.732117 483.708679,226.219955 485.339722,226.102875 
	C487.342346,225.959152 490.002472,223.737320 490.918091,221.743286 
	C493.963074,215.112152 496.336792,208.173935 499.000397,201.366165 
	C501.317688,195.443466 503.679199,189.538086 506.433380,182.584213 
	C507.534912,185.282303 508.168884,186.796005 508.773071,188.321518 
	C513.178894,199.446411 517.419922,210.641602 522.124756,221.638428 
	C522.985168,223.649536 525.788635,226.162079 527.582153,226.076416 
	C529.477417,225.985870 531.968140,223.400436 532.920837,221.319733 
	C535.888733,214.838425 538.251892,208.080185 541.106445,200.701965 
M375.301727,215.393021 
	C363.057800,215.255493 353.965179,207.716919 353.809814,197.135956 
	C355.434937,197.135956 357.057251,197.136002 358.679596,197.135941 
	C371.658173,197.135529 384.636871,197.163940 397.615326,197.122543 
	C404.129486,197.101761 405.896484,194.902802 404.962158,188.450989 
	C402.330719,170.280106 385.737518,158.904327 367.266663,162.744751 
	C353.064575,165.697617 343.265717,177.273438 342.035217,191.823486 
	C340.938690,204.789948 348.081512,217.239090 360.034637,223.194458 
	C371.022278,228.668777 385.290894,226.919464 394.117798,219.031784 
	C397.083099,216.382019 399.339142,213.284607 396.341034,209.587463 
	C393.447418,206.019150 390.364197,207.903610 387.142365,209.955292 
	C383.735809,212.124588 379.850677,213.542358 375.301727,215.393021 
M614.466064,171.038574 
	C607.372314,164.002747 598.661072,160.927979 588.929932,162.119247 
	C576.321045,163.662811 567.429443,170.886688 562.904663,182.679733 
	C558.278748,194.736267 560.459229,206.126373 569.025391,215.745209 
	C577.321289,225.060608 588.029236,228.648270 600.194824,225.392014 
	C624.137695,218.983383 631.799988,190.600189 614.466064,171.038574 
M331.185638,288.084106 
	C331.591064,289.425476 331.996490,290.766846 332.401917,292.108246 
	C333.004486,291.983093 333.607056,291.857971 334.209625,291.732819 
	C334.209625,288.815186 334.077759,285.889069 334.264191,282.983398 
	C334.360199,281.487640 335.023071,280.028290 335.429810,278.552490 
	C336.978271,279.483856 338.878632,280.111176 340.001221,281.410492 
	C342.271820,284.038574 343.989471,287.139557 346.206299,289.821350 
	C347.121094,290.927979 348.734222,291.457367 350.029724,292.249298 
	C350.257568,291.923187 350.485382,291.597076 350.713196,291.270935 
	C347.803894,287.051758 344.894592,282.832611 341.907043,278.499939 
	C345.259674,276.108215 347.590851,273.052063 345.095764,269.233459 
	C341.646912,263.955109 336.258575,266.674957 331.184601,266.160095 
	C331.184601,273.605377 331.184601,280.390350 331.185638,288.084106 
M551.863098,285.438751 
	C549.727905,279.850372 547.659973,274.234467 545.397034,268.698303 
	C544.978271,267.673859 543.777771,266.308105 542.928284,266.301117 
	C542.027649,266.293762 540.700867,267.545288 540.281677,268.548492 
	C538.681030,272.378998 537.405212,276.343811 535.942627,280.233887 
	C534.533447,283.982056 533.043579,287.699860 531.589111,291.431000 
	C532.114502,291.718109 532.639893,292.005219 533.165344,292.292328 
	C534.093628,291.202393 535.634460,290.217194 535.841919,289.003998 
	C536.642151,284.324585 539.714539,284.330780 543.490417,284.092407 
	C547.751038,283.823395 548.864502,286.067078 549.945374,289.319489 
	C550.335144,290.492462 551.882996,291.280548 552.902405,292.244293 
	C553.260925,291.905060 553.619446,291.565826 553.977966,291.226624 
	C553.342102,289.547333 552.706177,287.868073 551.863098,285.438751 
M615.965027,285.212524 
	C613.833801,279.661133 611.778564,274.078217 609.502747,268.586761 
	C609.082581,267.572968 607.757507,266.280823 606.873840,266.298584 
	C606.011353,266.315826 604.810364,267.697662 604.394348,268.735535 
	C601.932800,274.876953 599.619507,281.079071 597.352295,287.295776 
	C596.949951,288.398956 596.998535,289.666595 596.838867,290.858307 
	C597.265930,291.052368 597.693054,291.246429 598.120117,291.440491 
	C598.862915,290.433014 600.049622,289.512817 600.268127,288.402222 
	C601.025879,284.549713 603.495850,284.180878 606.830078,284.136566 
	C610.342896,284.089905 612.970093,284.459167 613.829163,288.510803 
	C614.010559,289.366547 615.429626,289.959869 616.278381,290.674103 
	C616.487793,289.707703 616.830200,288.745056 616.857971,287.773468 
	C616.875244,287.167206 616.417603,286.547394 615.965027,285.212524 
M267.578888,266.117828 
	C265.671631,266.117828 263.764404,266.117828 261.949249,266.117828 
	C261.949249,275.122955 261.949249,283.454559 261.949249,291.786194 
	C266.378723,288.209747 263.390533,283.147278 265.129242,279.101166 
	C267.397217,278.582275 269.643951,278.068207 271.890656,277.554169 
	C271.834106,276.995667 271.777527,276.437164 271.720947,275.878662 
	C269.440338,275.557892 267.159729,275.237122 264.598358,274.876831 
	C264.732361,272.813141 264.843506,271.101440 264.949799,269.464661 
	C275.886719,268.718750 275.886719,268.718750 277.015503,266.117767 
	C274.073151,266.117767 271.292084,266.117767 267.578888,266.117828 
M577.326843,285.283630 
	C577.326843,280.052673 577.326843,274.821716 577.326843,269.571045 
	C579.000305,269.420044 579.881287,269.514771 580.619324,269.233826 
	C581.774231,268.794220 582.832458,268.100525 583.931641,267.514465 
	C582.863037,267.041138 581.820801,266.250336 580.720459,266.159027 
	C578.244568,265.953552 575.711548,265.864838 573.255798,266.167236 
	C571.272339,266.411499 569.367920,267.297424 567.428406,267.898651 
	C569.309143,268.423035 571.194214,268.932892 573.066040,269.487366 
	C573.348633,269.571075 573.569519,269.862946 574.112793,270.288879 
	C574.112793,275.370026 573.958374,280.681946 574.192505,285.976654 
	C574.280151,287.958832 575.272461,289.901001 575.852234,291.861389 
	C576.343628,289.976959 576.835022,288.092529 577.326843,285.283630 
M420.741425,279.479126 
	C420.741425,290.918060 420.741425,290.918060 423.698120,291.659454 
	C423.698120,283.212433 423.698120,274.829224 423.698120,266.446014 
	C423.273956,266.262115 422.849762,266.078217 422.425598,265.894318 
	C421.866241,266.940887 420.899780,267.959076 420.824432,269.039398 
	C420.605438,272.179474 420.743530,275.344421 420.741425,279.479126 
M634.538757,284.433411 
	C635.352905,283.413086 636.806763,282.430603 636.869873,281.365784 
	C637.134155,276.901764 637.036255,272.411865 636.936279,267.934479 
	C636.916321,267.040955 636.305847,266.160645 635.967651,265.274231 
	C635.305908,265.336029 634.644165,265.397797 633.982422,265.459564 
	C633.982422,271.560455 633.982422,277.661316 634.538757,284.433411 
z"/>
<path fill="#72C9A5" opacity="1.000000" stroke="none" 
	d="
M119.849289,128.856598 
	C147.920532,125.821098 175.540176,122.821411 203.156815,119.794525 
	C208.115829,119.250999 213.049652,118.432297 218.018753,118.039810 
	C222.482056,117.687279 224.095596,119.582947 223.511978,124.010109 
	C218.338028,163.257507 213.126923,202.500015 208.002502,241.753860 
	C207.496338,245.631134 205.678909,247.191956 201.755569,247.153168 
	C188.591110,247.023010 175.419373,246.906311 162.262512,247.248688 
	C159.059891,247.332031 155.330978,248.439407 152.817017,250.353699 
	C133.734863,264.884003 114.908585,279.750031 95.963348,294.460968 
	C93.289787,296.536957 90.550835,300.076019 86.821404,297.746002 
	C82.782784,295.222870 85.839584,291.341125 86.491158,288.195618 
	C88.135315,280.258240 90.168953,272.401550 92.200714,263.864624 
	C83.645294,263.864624 75.674065,263.662537 67.719566,263.940125 
	C62.925312,264.107483 60.549614,262.634399 59.531212,257.588196 
	C51.896942,219.760376 43.982101,181.989227 36.186283,144.193924 
	C35.203621,139.429810 36.313587,137.951538 41.992840,137.289795 
	C57.852425,135.441864 73.732712,133.770813 89.607101,132.050949 
	C99.534821,130.975357 109.466652,129.937744 119.849289,128.856598 
z"/>
<path fill="#3B3F46" opacity="1.000000" stroke="none" 
	d="
M313.501648,218.220596 
	C300.025726,196.661346 286.549805,175.102097 272.465149,152.569000 
	C272.321320,155.010788 272.171234,156.382095 272.170166,157.753540 
	C272.153931,178.418549 272.246552,199.084564 272.019775,219.747116 
	C271.996765,221.843842 270.484283,225.179581 268.934174,225.679230 
	C267.090179,226.273621 264.458374,224.423828 262.434143,222.996674 
	C262.787506,221.706314 262.950562,221.052353 262.950867,220.398346 
	C262.964691,191.846695 262.975006,163.295029 262.928375,134.743454 
	C262.926361,133.510422 262.384094,132.278290 262.093475,131.045731 
	C264.857330,126.750374 269.385315,126.622009 272.079529,130.951782 
	C285.499939,152.519302 298.845398,174.133438 312.219818,195.729584 
	C313.164001,197.254211 314.128906,198.766052 315.667328,201.210373 
	C315.821289,198.891327 315.987610,197.543091 315.988800,196.194733 
	C316.006256,176.057175 315.970306,155.919479 316.054871,135.782257 
	C316.062714,133.910278 316.801941,132.041336 318.024109,130.100311 
	C323.921387,129.216629 325.105835,131.906174 325.089233,136.387939 
	C324.991180,162.859146 325.042267,189.330887 325.040466,215.802460 
	C325.039856,224.661285 324.481995,225.161057 316.676514,223.345444 
	C316.676514,223.345444 316.885040,223.178177 316.828918,222.869904 
	C315.682434,221.114624 314.592041,219.667603 313.501648,218.220596 
z"/>
<path fill="#3E4249" opacity="1.000000" stroke="none" 
	d="
M540.978027,201.065643 
	C538.251892,208.080185 535.888733,214.838425 532.920837,221.319733 
	C531.968140,223.400436 529.477417,225.985870 527.582153,226.076416 
	C525.788635,226.162079 522.985168,223.649536 522.124756,221.638428 
	C517.419922,210.641602 513.178894,199.446411 508.773071,188.321518 
	C508.168884,186.796005 507.534912,185.282303 506.433380,182.584213 
	C503.679199,189.538086 501.317688,195.443466 499.000397,201.366165 
	C496.336792,208.173935 493.963074,215.112152 490.918091,221.743286 
	C490.002472,223.737320 487.342346,225.959152 485.339722,226.102875 
	C483.708679,226.219955 481.030701,223.732117 480.248322,221.815140 
	C473.347229,204.906509 466.778687,187.862305 460.081268,170.870239 
	C458.598450,167.108124 458.790924,163.725250 462.987610,162.200912 
	C467.142395,160.691772 469.080688,163.878372 470.284882,167.030197 
	C475.320099,180.209549 480.172455,193.458771 485.459747,207.671448 
	C488.496460,200.145920 491.289795,193.565201 493.809998,186.881485 
	C496.323700,180.214966 498.306152,173.336334 501.075806,166.785049 
	C501.940094,164.740677 504.768311,162.008728 506.407837,162.191360 
	C508.492096,162.423569 511.194733,164.939194 512.048767,167.096588 
	C517.235718,180.199036 521.972412,193.479706 527.201904,207.627335 
	C528.103821,205.665955 528.729553,204.505356 529.185852,203.281555 
	C533.424377,191.913574 537.632324,180.534225 541.853333,169.159775 
	C542.255554,168.075989 542.620728,166.971497 543.116882,165.930893 
	C544.529846,162.967667 546.630554,160.869217 550.127258,162.275101 
	C553.691345,163.708099 554.470520,166.546082 553.086548,170.070786 
	C549.079529,180.275803 545.097961,190.490860 540.978027,201.065643 
z"/>
<path fill="#3D4148" opacity="1.000000" stroke="none" 
	d="
M375.738159,215.340729 
	C379.850677,213.542358 383.735809,212.124588 387.142365,209.955292 
	C390.364197,207.903610 393.447418,206.019150 396.341034,209.587463 
	C399.339142,213.284607 397.083099,216.382019 394.117798,219.031784 
	C385.290894,226.919464 371.022278,228.668777 360.034637,223.194458 
	C348.081512,217.239090 340.938690,204.789948 342.035217,191.823486 
	C343.265717,177.273438 353.064575,165.697617 367.266663,162.744751 
	C385.737518,158.904327 402.330719,170.280106 404.962158,188.450989 
	C405.896484,194.902802 404.129486,197.101761 397.615326,197.122543 
	C384.636871,197.163940 371.658173,197.135529 358.679596,197.135941 
	C357.057251,197.136002 355.434937,197.135956 353.809814,197.135956 
	C353.965179,207.716919 363.057800,215.255493 375.738159,215.340729 
M392.438019,185.408905 
	C388.636200,176.821030 381.148560,172.427139 371.397675,173.062042 
	C364.321289,173.522797 357.026642,179.287933 355.590973,186.611298 
	C366.665588,186.739258 377.740082,186.893280 388.815063,186.953323 
	C389.878906,186.959106 390.945923,186.380463 392.438019,185.408905 
z"/>
<path fill="#3D4149" opacity="1.000000" stroke="none" 
	d="
M614.715637,171.291046 
	C631.799988,190.600189 624.137695,218.983383 600.194824,225.392014 
	C588.029236,228.648270 577.321289,225.060608 569.025391,215.745209 
	C560.459229,206.126373 558.278748,194.736267 562.904663,182.679733 
	C567.429443,170.886688 576.321045,163.662811 588.929932,162.119247 
	C598.661072,160.927979 607.372314,164.002747 614.715637,171.291046 
M574.273804,184.046677 
	C569.894470,192.218643 571.015442,201.082977 576.851379,208.152206 
	C583.339111,216.010818 593.422485,216.518768 599.570435,214.132782 
	C608.374512,210.715973 613.552612,202.693481 613.111633,192.997330 
	C612.701477,183.979950 606.589478,176.321060 597.692993,173.676392 
	C589.131165,171.131210 580.737732,174.677795 574.273804,184.046677 
z"/>
<path fill="#3A3F46" opacity="1.000000" stroke="none" 
	d="
M688.137085,131.063812 
	C690.650208,127.123909 695.094421,127.213898 697.710938,131.924454 
	C697.265625,149.498306 697.151306,166.412216 697.094849,183.326355 
	C697.093018,183.882050 697.678589,184.439728 697.990356,184.996475 
	C699.261536,184.349304 700.774780,183.956299 701.764465,183.013611 
	C708.027466,177.048004 714.162720,170.948563 720.365723,164.919678 
	C722.756714,162.595779 728.598816,161.672348 730.023376,163.570709 
	C732.709656,167.150146 730.852661,169.943146 728.214478,172.712967 
	C721.337769,179.932709 714.605652,187.290222 707.772339,194.639648 
	C711.591553,198.613144 716.249390,203.508453 720.966614,208.345901 
	C723.288696,210.727188 725.631042,213.103043 728.125244,215.298355 
	C731.310303,218.101746 732.565674,221.240738 729.769348,224.838074 
	C727.649658,227.564911 724.050293,226.798248 720.367554,223.193619 
	C713.275879,216.252426 706.178162,209.317398 698.159790,201.477158 
	C698.159790,208.594391 698.425476,214.507919 698.010620,220.373352 
	C697.871948,222.334564 696.398071,225.101669 694.795288,225.797287 
	C693.293945,226.448868 690.814758,224.847260 688.854187,223.407654 
	C688.948975,193.649658 688.968323,164.721222 688.926575,135.792862 
	C688.924316,134.216156 688.411987,132.640152 688.137085,131.063812 
z"/>
<path fill="#40434A" opacity="1.000000" stroke="none" 
	d="
M427.933533,173.015930 
	C424.934204,173.028091 421.932098,173.126892 418.936310,173.030212 
	C415.319275,172.913498 412.673737,171.395157 412.910980,167.349503 
	C413.123749,163.721542 414.959991,162.250244 418.961548,162.746490 
	C421.727936,163.089569 424.679993,161.935211 428.128815,161.351944 
	C428.128815,156.020676 428.160156,150.571701 428.118286,145.123306 
	C428.088074,141.188736 429.144623,137.743240 433.742767,137.996323 
	C437.955688,138.228226 439.270844,141.308914 439.105499,145.394272 
	C438.877625,151.026291 439.048401,156.674438 439.048401,162.965591 
	C442.214539,162.573242 444.865814,162.154388 447.533447,161.935669 
	C451.368317,161.621277 454.335846,163.035629 454.497345,167.198029 
	C454.658325,171.346802 451.847382,173.000793 447.975433,173.045456 
	C445.180878,173.077682 442.385651,173.051727 439.049652,173.051727 
	C439.049652,182.589127 439.052032,191.702606 439.048889,200.816086 
	C439.046600,207.482651 439.343018,214.172501 438.838837,220.801193 
	C438.692963,222.718796 436.445038,225.677368 434.788574,225.957443 
	C432.958862,226.266815 430.701630,224.047623 429.022949,222.300522 
	C429.561096,221.374100 429.833191,221.077454 429.834534,220.779617 
	C429.902191,205.797562 429.983948,190.815201 429.905029,175.833740 
	C429.900024,174.891022 428.620239,173.955032 427.933533,173.015930 
z"/>
<path fill="#3C4047" opacity="1.000000" stroke="none" 
	d="
M639.907227,165.944489 
	C641.980225,161.492264 643.597412,161.133972 647.549805,163.215744 
	C649.022278,163.991318 651.477722,163.918259 653.082275,163.256226 
	C661.950256,159.597305 671.205627,163.565933 674.577759,172.577271 
	C675.914429,176.149109 674.854187,178.981781 671.893921,180.633667 
	C668.817322,182.350449 666.421814,180.266068 664.952271,177.642441 
	C663.085205,174.308838 660.867615,171.621323 656.731323,173.251755 
	C652.553711,174.898453 650.174927,178.143066 650.185120,182.880981 
	C650.211548,195.174164 650.362061,207.472336 650.018799,219.756104 
	C649.958435,221.919968 648.247437,224.915527 646.411804,225.944061 
	C643.728394,227.447586 640.937927,226.091934 640.127747,222.219955 
	C640.672791,221.128799 640.911926,220.654343 640.912842,220.179443 
	C640.945251,203.130600 640.973755,186.081650 640.923035,169.032974 
	C640.919983,168.002487 640.261047,166.973938 639.907227,165.944489 
z"/>
<path fill="#F3F3F3" opacity="1.000000" stroke="none" 
	d="
M508.173553,291.594971 
	C505.191528,291.626160 502.209473,291.657318 499.823669,291.383240 
	C501.025879,289.823334 502.115051,288.583923 502.155273,287.311401 
	C502.341949,281.404694 502.237854,275.488800 502.237854,268.984222 
	C504.814240,268.984222 506.909760,268.984222 509.279510,269.194427 
	C514.050659,270.821075 517.054382,273.591736 517.244446,278.534790 
	C517.442871,283.696655 514.584839,286.693512 509.952026,288.518066 
	C509.089142,288.857910 508.752869,290.535004 508.173553,291.594971 
z"/>
<path fill="#474B52" opacity="1.000000" stroke="none" 
	d="
M331.185120,287.629730 
	C331.184601,280.390350 331.184601,273.605377 331.184601,266.160095 
	C336.258575,266.674957 341.646912,263.955109 345.095764,269.233459 
	C347.590851,273.052063 345.259674,276.108215 341.907043,278.499939 
	C344.894592,282.832611 347.803894,287.051758 350.713196,291.270935 
	C350.485382,291.597076 350.257568,291.923187 350.029724,292.249298 
	C348.734222,291.457367 347.121094,290.927979 346.206299,289.821350 
	C343.989471,287.139557 342.271820,284.038574 340.001221,281.410492 
	C338.878632,280.111176 336.978271,279.483856 335.429810,278.552490 
	C335.023071,280.028290 334.360199,281.487640 334.264191,282.983398 
	C334.077759,285.889069 334.209625,288.815186 334.209625,291.732819 
	C333.607056,291.857971 333.004486,291.983093 332.401917,292.108246 
	C331.996490,290.766846 331.591064,289.425476 331.185120,287.629730 
M334.169006,274.386261 
	C336.802277,274.377197 339.448669,274.486603 342.051178,274.199036 
	C342.353882,274.165588 342.774353,270.961761 342.530579,270.871338 
	C339.969482,269.921356 337.284180,269.306213 334.097046,268.455414 
	C334.097046,271.032928 334.097046,272.344818 334.169006,274.386261 
z"/>
<path fill="#4C5056" opacity="1.000000" stroke="none" 
	d="
M316.763428,223.673721 
	C324.481995,225.161057 325.039856,224.661285 325.040466,215.802460 
	C325.042267,189.330887 324.991180,162.859146 325.089233,136.387939 
	C325.105835,131.906174 323.921387,129.216629 318.421509,130.014038 
	C319.533630,129.320831 321.287201,127.832787 322.553558,128.170685 
	C324.139099,128.593765 325.485901,130.391891 326.609741,131.848068 
	C327.118439,132.507202 326.909973,133.772949 326.910400,134.763535 
	C326.922760,162.869781 327.004456,190.976746 326.767334,219.080994 
	C326.747406,221.444168 325.086487,224.500961 323.198059,225.869339 
	C322.106384,226.660370 319.032227,224.715515 316.763428,223.673721 
z"/>
<path fill="#494D54" opacity="1.000000" stroke="none" 
	d="
M551.966675,285.813782 
	C552.706177,287.868073 553.342102,289.547333 553.977966,291.226624 
	C553.619446,291.565826 553.260925,291.905060 552.902405,292.244293 
	C551.882996,291.280548 550.335144,290.492462 549.945374,289.319489 
	C548.864502,286.067078 547.751038,283.823395 543.490417,284.092407 
	C539.714539,284.330780 536.642151,284.324585 535.841919,289.003998 
	C535.634460,290.217194 534.093628,291.202393 533.165344,292.292328 
	C532.639893,292.005219 532.114502,291.718109 531.589111,291.431000 
	C533.043579,287.699860 534.533447,283.982056 535.942627,280.233887 
	C537.405212,276.343811 538.681030,272.378998 540.281677,268.548492 
	C540.700867,267.545288 542.027649,266.293762 542.928284,266.301117 
	C543.777771,266.308105 544.978271,267.673859 545.397034,268.698303 
	C547.659973,274.234467 549.727905,279.850372 551.966675,285.813782 
M544.234863,281.180084 
	C544.825562,280.493622 546.035583,279.638519 545.902344,279.149109 
	C545.239380,276.713928 544.222900,274.375000 542.862305,270.755768 
	C541.370728,274.773529 540.332153,277.571014 539.136963,280.790436 
	C540.859558,280.955048 542.093140,281.072937 544.234863,281.180084 
z"/>
<path fill="#494D54" opacity="1.000000" stroke="none" 
	d="
M616.069092,285.573120 
	C616.417603,286.547394 616.875244,287.167206 616.857971,287.773468 
	C616.830200,288.745056 616.487793,289.707703 616.278381,290.674103 
	C615.429626,289.959869 614.010559,289.366547 613.829163,288.510803 
	C612.970093,284.459167 610.342896,284.089905 606.830078,284.136566 
	C603.495850,284.180878 601.025879,284.549713 600.268127,288.402222 
	C600.049622,289.512817 598.862915,290.433014 598.120117,291.440491 
	C597.693054,291.246429 597.265930,291.052368 596.838867,290.858307 
	C596.998535,289.666595 596.949951,288.398956 597.352295,287.295776 
	C599.619507,281.079071 601.932800,274.876953 604.394348,268.735535 
	C604.810364,267.697662 606.011353,266.315826 606.873840,266.298584 
	C607.757507,266.280823 609.082581,267.572968 609.502747,268.586761 
	C611.778564,274.078217 613.833801,279.661133 616.069092,285.573120 
M605.075500,275.832062 
	C604.578857,277.455383 604.082214,279.078674 603.564514,280.770660 
	C606.209534,280.770660 608.219360,280.770660 610.792175,280.770660 
	C609.583862,277.443146 608.580627,274.680328 607.238220,270.983368 
	C606.288208,273.045807 605.822937,274.055817 605.075500,275.832062 
z"/>
<path fill="#44484F" opacity="1.000000" stroke="none" 
	d="
M444.126190,273.301605 
	C441.826752,280.717773 443.972260,286.426025 449.909546,288.688477 
	C456.188660,291.081207 461.072296,286.725006 460.380859,279.178772 
	C457.910522,278.646454 455.405914,278.106750 452.901306,277.567047 
	C453.005524,276.995331 453.109741,276.423645 453.213989,275.851929 
	C456.526459,275.851929 459.838898,275.851929 463.163483,275.851929 
	C464.759033,286.135559 463.632568,289.085327 457.242950,291.381897 
	C452.301636,293.157928 446.633942,291.660431 443.204224,287.672729 
	C439.468353,283.329010 439.052643,278.976593 441.803650,273.701202 
	C442.007874,273.309540 441.827820,272.717438 442.398621,272.112549 
	C443.355927,272.438263 443.741058,272.869934 444.126190,273.301605 
z"/>
<path fill="#44484F" opacity="1.000000" stroke="none" 
	d="
M268.044983,266.117798 
	C271.292084,266.117767 274.073151,266.117767 277.015503,266.117767 
	C275.886719,268.718750 275.886719,268.718750 264.949799,269.464661 
	C264.843506,271.101440 264.732361,272.813141 264.598358,274.876831 
	C267.159729,275.237122 269.440338,275.557892 271.720947,275.878662 
	C271.777527,276.437164 271.834106,276.995667 271.890656,277.554169 
	C269.643951,278.068207 267.397217,278.582275 265.129242,279.101166 
	C263.390533,283.147278 266.378723,288.209747 261.949249,291.786194 
	C261.949249,283.454559 261.949249,275.122955 261.949249,266.117828 
	C263.764404,266.117828 265.671631,266.117828 268.044983,266.117798 
z"/>
<path fill="#4C5056" opacity="1.000000" stroke="none" 
	d="
M395.230682,266.646942 
	C396.373871,267.167542 398.251709,267.429504 398.540771,268.250732 
	C400.394104,273.516022 402.467529,278.812622 403.345764,284.279297 
	C404.105164,289.006470 400.593140,291.411194 396.124268,291.846344 
	C393.335846,292.117889 390.498138,291.883026 387.421936,291.368347 
	C387.548981,290.544189 387.936584,290.227112 388.704193,289.841370 
	C391.316742,289.464111 393.555115,289.192413 395.780334,288.838074 
	C398.967865,288.330475 401.400085,286.376343 400.615631,283.257782 
	C400.123962,281.303162 397.656281,279.089844 395.627197,278.477661 
	C393.328217,277.784088 390.528351,278.750549 387.687500,278.779358 
	C387.643372,277.370605 387.858032,276.177704 388.503998,275.033691 
	C390.090912,275.128479 391.342468,275.477509 392.379761,275.149323 
	C393.937988,274.656281 395.346039,273.688721 396.817963,272.922943 
	C395.868591,271.582642 394.919220,270.242340 394.141479,268.625397 
	C394.618927,267.781494 394.924805,267.214233 395.230682,266.646942 
z"/>
<path fill="#494D54" opacity="1.000000" stroke="none" 
	d="
M577.326660,285.745850 
	C576.835022,288.092529 576.343628,289.976959 575.852234,291.861389 
	C575.272461,289.901001 574.280151,287.958832 574.192505,285.976654 
	C573.958374,280.681946 574.112793,275.370026 574.112793,270.288879 
	C573.569519,269.862946 573.348633,269.571075 573.066040,269.487366 
	C571.194214,268.932892 569.309143,268.423035 567.428406,267.898682 
	C569.367920,267.297424 571.272339,266.411499 573.255798,266.167236 
	C575.711548,265.864838 578.244568,265.953552 580.720459,266.159027 
	C581.820801,266.250336 582.863037,267.041138 583.931641,267.514465 
	C582.832458,268.100525 581.774231,268.794220 580.619324,269.233826 
	C579.881287,269.514771 579.000305,269.420044 577.326843,269.571045 
	C577.326843,274.821716 577.326843,280.052673 577.326660,285.745850 
z"/>
<path fill="#44484F" opacity="1.000000" stroke="none" 
	d="
M290.907013,274.971527 
	C291.743073,269.686066 295.213470,267.066223 300.109619,265.922607 
	C306.159180,264.509644 310.897064,266.847504 314.157196,271.710510 
	C317.037994,276.007629 316.971649,280.829010 314.433197,285.415039 
	C313.725098,286.694305 312.599792,287.742584 311.333893,288.577087 
	C310.875671,287.423401 310.749420,286.589508 310.630066,285.775879 
	C310.636902,285.796204 310.649994,285.759857 310.947937,285.708374 
	C311.359344,285.299194 311.472778,284.941528 311.616394,284.661102 
	C311.646637,284.738342 311.498322,284.664062 311.874146,284.602783 
	C312.458221,283.845551 312.666443,283.149567 312.825836,282.060089 
	C313.204407,274.779358 310.948151,270.581390 305.991974,269.042603 
	C300.993713,267.490753 297.145966,269.373871 293.080444,275.109314 
	C292.066772,275.036804 291.486877,275.004181 290.907013,274.971527 
z"/>
<path fill="#40434A" opacity="1.000000" stroke="none" 
	d="
M508.534729,291.578613 
	C508.752869,290.535004 509.089142,288.857910 509.952026,288.518066 
	C514.584839,286.693512 517.442871,283.696655 517.244446,278.534790 
	C517.054382,273.591736 514.050659,270.821075 509.447632,268.950928 
	C509.900421,267.979126 510.459290,267.460999 511.018188,266.942871 
	C517.407776,269.053436 520.783325,273.696594 520.380615,279.821472 
	C519.971069,286.051056 515.923889,290.188416 508.534729,291.578613 
z"/>
<path fill="#3A3F46" opacity="1.000000" stroke="none" 
	d="
M420.741486,278.989380 
	C420.743530,275.344421 420.605438,272.179474 420.824432,269.039398 
	C420.899780,267.959076 421.866241,266.940887 422.425598,265.894318 
	C422.849762,266.078217 423.273956,266.262115 423.698120,266.446014 
	C423.698120,274.829224 423.698120,283.212433 423.698120,291.659454 
	C420.741425,290.918060 420.741425,290.918060 420.741486,278.989380 
z"/>
<path fill="#202630" opacity="1.000000" stroke="none" 
	d="
M428.048950,173.471527 
	C428.620239,173.955032 429.900024,174.891022 429.905029,175.833740 
	C429.983948,190.815201 429.902191,205.797562 429.834534,220.779617 
	C429.833191,221.077454 429.561096,221.374100 429.055969,221.927734 
	C428.549042,209.917847 428.397766,197.651566 428.256195,185.385178 
	C428.212097,181.565979 428.194244,177.746475 428.048950,173.471527 
z"/>
<path fill="#3A3F46" opacity="1.000000" stroke="none" 
	d="
M310.623169,285.755585 
	C310.749420,286.589508 310.875671,287.423401 311.005615,288.680969 
	C307.169006,291.656067 298.760834,292.197601 295.661102,289.804596 
	C290.964752,286.178955 288.833893,281.463623 290.675415,275.218994 
	C291.486877,275.004181 292.066772,275.036804 292.993469,275.515106 
	C292.378204,281.027344 293.758881,285.208527 298.378937,287.776886 
	C302.870850,290.273956 306.954407,288.942291 310.623169,285.755585 
z"/>
<path fill="#000000" opacity="1.000000" stroke="none" 
	d="
M688.006348,131.512238 
	C688.411987,132.640152 688.924316,134.216156 688.926575,135.792862 
	C688.968323,164.721222 688.948975,193.649658 688.953247,223.085388 
	C688.576233,222.255234 687.851868,220.918243 687.850037,219.580261 
	C687.810181,190.373779 687.850647,161.167221 688.006348,131.512238 
z"/>
<path fill="#000000" opacity="1.000000" stroke="none" 
	d="
M261.959534,131.494598 
	C262.384094,132.278290 262.926361,133.510422 262.928375,134.743454 
	C262.975006,163.295029 262.964691,191.846695 262.950867,220.398346 
	C262.950562,221.052353 262.787506,221.706314 262.406006,222.649750 
	C261.988190,219.637482 261.758270,216.335754 261.758087,213.034042 
	C261.756378,186.003860 261.797485,158.973663 261.959534,131.494598 
z"/>
<path fill="#40434A" opacity="1.000000" stroke="none" 
	d="
M444.444153,273.131836 
	C443.741058,272.869934 443.355927,272.438263 442.586121,271.783203 
	C442.201385,271.559784 442.306244,271.272522 442.749542,271.025085 
	C443.410065,270.374634 443.627319,269.971619 443.844574,269.568604 
	C449.501678,264.253235 456.340546,264.120758 462.007874,270.118561 
	C455.924042,269.538849 449.206390,266.070862 444.444153,273.131836 
z"/>
<path fill="#202630" opacity="1.000000" stroke="none" 
	d="
M510.630310,266.800964 
	C510.459290,267.460999 509.900421,267.979126 509.173401,268.740723 
	C506.909760,268.984222 504.814240,268.984222 502.237854,268.984222 
	C502.237854,275.488800 502.341949,281.404694 502.155273,287.311401 
	C502.115051,288.583923 501.025879,289.823334 499.933105,291.058777 
	C499.446320,282.949615 499.446320,274.859619 499.446320,266.174713 
	C503.401154,266.352142 506.821838,266.505585 510.630310,266.800964 
z"/>
<path fill="#44484F" opacity="1.000000" stroke="none" 
	d="
M634.260620,284.097778 
	C633.982422,277.661316 633.982422,271.560455 633.982422,265.459564 
	C634.644165,265.397797 635.305908,265.336029 635.967651,265.274231 
	C636.305847,266.160645 636.916321,267.040955 636.936279,267.934479 
	C637.036255,272.411865 637.134155,276.901764 636.869873,281.365784 
	C636.806763,282.430603 635.352905,283.413086 634.260620,284.097778 
z"/>
<path fill="#161F2C" opacity="1.000000" stroke="none" 
	d="
M388.072723,274.984802 
	C387.858032,276.177704 387.643372,277.370605 387.717224,279.235718 
	C388.111908,283.241943 388.218018,286.575989 388.324158,289.910034 
	C387.936584,290.227112 387.548981,290.544189 387.039734,291.226379 
	C386.372009,290.289429 385.391083,288.999420 385.354645,287.683228 
	C385.191742,281.801422 385.298279,275.912140 385.702606,269.559937 
	C386.725555,269.056641 387.353455,269.018982 388.003235,269.003296 
	C388.025116,269.025208 388.068787,269.069153 388.065063,269.491638 
	C388.065125,271.604370 388.068909,273.294586 388.072723,274.984802 
z"/>
<path fill="#000000" opacity="1.000000" stroke="none" 
	d="
M639.779785,166.401810 
	C640.261047,166.973938 640.919983,168.002487 640.923035,169.032974 
	C640.973755,186.081650 640.945251,203.130600 640.912842,220.179443 
	C640.911926,220.654343 640.672791,221.128799 640.194580,221.859818 
	C639.780396,203.697159 639.716370,185.278152 639.779785,166.401810 
z"/>
<path fill="#161F2C" opacity="1.000000" stroke="none" 
	d="
M698.058716,184.532364 
	C697.678589,184.439728 697.093018,183.882050 697.094849,183.326355 
	C697.151306,166.412216 697.265625,149.498306 697.672607,132.296173 
	C698.025330,149.361420 698.076233,166.714844 698.058716,184.532364 
z"/>
<path fill="#161F2C" opacity="1.000000" stroke="none" 
	d="
M394.859558,266.506226 
	C394.924805,267.214233 394.618927,267.781494 393.721802,268.670349 
	C391.443268,269.017670 389.756042,269.043427 388.068787,269.069153 
	C388.068787,269.069153 388.025116,269.025208 388.019348,268.691223 
	C388.047852,267.734955 388.082092,267.112701 388.116302,266.490417 
	C390.240326,266.448761 392.364380,266.407135 394.859558,266.506226 
z"/>
<path fill="#4C5056" opacity="1.000000" stroke="none" 
	d="
M313.591278,218.552048 
	C314.592041,219.667603 315.682434,221.114624 316.710144,222.931213 
	C315.658630,221.828354 314.669769,220.355927 313.591278,218.552048 
z"/>
<path fill="#4C5056" opacity="1.000000" stroke="none" 
	d="
M387.758636,266.324219 
	C388.082092,267.112701 388.047852,267.734955 387.997467,268.669312 
	C387.353455,269.018982 386.725555,269.056641 385.782288,269.105835 
	C386.111603,268.130920 386.756287,267.144470 387.758636,266.324219 
z"/>
<path fill="#44484F" opacity="1.000000" stroke="none" 
	d="
M443.528564,269.720154 
	C443.627319,269.971619 443.410065,270.374634 442.873779,270.935913 
	C442.773987,270.686707 442.993256,270.279205 443.528564,269.720154 
z"/>
<path fill="#F9F9F9" opacity="1.000000" stroke="none" 
	d="
M354.995911,186.024780 
	C357.026642,179.287933 364.321289,173.522797 371.397675,173.062042 
	C381.148560,172.427139 388.636200,176.821030 391.756897,185.700104 
	C379.049164,186.002457 367.022522,186.013611 354.995911,186.024780 
z"/>
<path fill="#202630" opacity="1.000000" stroke="none" 
	d="
M355.293457,186.318039 
	C367.022522,186.013611 379.049164,186.002457 391.543610,186.032196 
	C390.945923,186.380463 389.878906,186.959106 388.815063,186.953323 
	C377.740082,186.893280 366.665588,186.739258 355.293457,186.318039 
z"/>
<path fill="#FCFCFC" opacity="1.000000" stroke="none" 
	d="
M574.473877,183.724777 
	C580.737732,174.677795 589.131165,171.131210 597.692993,173.676392 
	C606.589478,176.321060 612.701477,183.979950 613.111633,192.997330 
	C613.552612,202.693481 608.374512,210.715973 599.570435,214.132782 
	C593.422485,216.518768 583.339111,216.010818 576.851379,208.152206 
	C571.015442,201.082977 569.894470,192.218643 574.473877,183.724777 
z"/>
<path fill="#DEDEDF" opacity="1.000000" stroke="none" 
	d="
M334.133026,274.021484 
	C334.097046,272.344818 334.097046,271.032928 334.097046,268.455414 
	C337.284180,269.306213 339.969482,269.921356 342.530579,270.871338 
	C342.774353,270.961761 342.353882,274.165588 342.051178,274.199036 
	C339.448669,274.486603 336.802277,274.377197 334.133026,274.021484 
z"/>
<path fill="#ECECED" opacity="1.000000" stroke="none" 
	d="
M543.780762,281.185455 
	C542.093140,281.072937 540.859558,280.955048 539.136963,280.790436 
	C540.332153,277.571014 541.370728,274.773529 542.862305,270.755768 
	C544.222900,274.375000 545.239380,276.713928 545.902344,279.149109 
	C546.035583,279.638519 544.825562,280.493622 543.780762,281.185455 
z"/>
<path fill="#ECECED" opacity="1.000000" stroke="none" 
	d="
M605.216553,275.448944 
	C605.822937,274.055817 606.288208,273.045807 607.238220,270.983368 
	C608.580627,274.680328 609.583862,277.443146 610.792175,280.770660 
	C608.219360,280.770660 606.209534,280.770660 603.564514,280.770660 
	C604.082214,279.078674 604.578857,277.455383 605.216553,275.448944 
z"/>
<path fill="#F3F3F3" opacity="1.000000" stroke="none" 
	d="
M388.704163,289.841370 
	C388.218018,286.575989 388.111908,283.241943 387.976013,279.451538 
	C390.528351,278.750549 393.328217,277.784088 395.627197,278.477661 
	C397.656281,279.089844 400.123962,281.303162 400.615631,283.257782 
	C401.400085,286.376343 398.967865,288.330475 395.780334,288.838074 
	C393.555115,289.192413 391.316742,289.464111 388.704163,289.841370 
z"/>
<path fill="#ECECED" opacity="1.000000" stroke="none" 
	d="
M388.065063,269.491638 
	C389.756042,269.043427 391.443268,269.017670 393.550201,268.946960 
	C394.919220,270.242340 395.868591,271.582642 396.817963,272.922943 
	C395.346039,273.688721 393.937988,274.656281 392.379761,275.149323 
	C391.342468,275.477509 390.090912,275.128479 388.503998,275.033691 
	C388.068909,273.294586 388.065125,271.604370 388.065063,269.491638 
z"/>
<path fill="#F9F9F9" opacity="1.000000" stroke="none" 
	d="
M310.630035,285.775879 
	C306.954407,288.942291 302.870850,290.273956 298.378937,287.776886 
	C293.758881,285.208527 292.378204,281.027344 293.427246,275.554962 
	C297.145966,269.373871 300.993713,267.490753 305.991974,269.042603 
	C310.948151,270.581390 313.204407,274.779358 312.541443,282.244568 
	C312.036713,283.436401 311.767517,284.050232 311.498322,284.664062 
	C311.498322,284.664062 311.646637,284.738342 311.381714,284.783752 
	C310.961182,285.139404 310.805573,285.449615 310.649994,285.759857 
	C310.649994,285.759857 310.636902,285.796204 310.630035,285.775879 
z"/>
<path fill="#3A3F46" opacity="1.000000" stroke="none" 
	d="
M311.874146,284.602783 
	C311.767517,284.050232 312.036713,283.436401 312.590271,282.638062 
	C312.666443,283.149567 312.458221,283.845551 311.874146,284.602783 
z"/>
<path fill="#3A3F46" opacity="1.000000" stroke="none" 
	d="
M310.947937,285.708374 
	C310.805573,285.449615 310.961182,285.139404 311.351501,284.706543 
	C311.472778,284.941528 311.359344,285.299194 310.947937,285.708374 
z"/>
</svg>